<svg xmlns="http://www.w3.org/2000/svg" xmlns:xlink="http://www.w3.org/1999/xlink" id="Capa_1" x="0px" y="0px" viewBox="0 0 1570.2 237.1" style="enable-background:new 0 0 1570.2 237.1;" xml:space="preserve">
<style type="text/css">
	.st0{fill:#FFFFFF;}
	.st1{fill:#33302F;}
	.st2{fill:#8A7C9A;}
	.st3{fill:#EBEBEB;}
	.st4{fill:#675D74;}
	.st5{opacity:0.8;fill:#1D1D1C;}
	.st6{fill:none;stroke:#FFFFFF;stroke-width:1.0966;stroke-miterlimit:10;}
</style>
<g>
	<path class="st1" d="M296.4,216.7l-36.5-42.5c24.4-5.9,31.9-25.9,31.9-48.7c0-16.3-2.1-36.8-14.2-49   c-13.7-13.5-28.2-12.7-46.6-12.7h-48.2c-9,0-15.5,2.8-15.5,13.2V223c0,10.6,5.7,14,15.5,14c11.7,0,25.1,2.3,25.1-14v-46.9h3.6   l43.2,52.9c5.2,6.5,10.4,8,18.4,8h15.5c6.2,0,11.9-2.3,11.9-9.6C300.5,223.8,299,219.6,296.4,216.7z M234.2,141.6h-26.4v-43   c4.9-0.3,9.9-0.3,14.8-0.3h7.3c3.9,0,13,0,16.1,1.6c5.5,2.6,5.5,18.1,5.5,23.6C251.3,138.5,249.7,141.6,234.2,141.6z"></path>
	<path class="st1" d="M403.7,53.7c-58.6,0-77,39.1-77,91.7c0,52.3,18.7,91.7,77,91.7c58.3,0,77.2-39.4,77.2-91.7   C480.8,92.8,462.2,53.7,403.7,53.7z M433.4,187.4c-5.7,11.7-17.9,14.5-29.8,14.5c-11.9,0-23.8-2.8-29.5-14.5   c-4.9-10.1-5.4-30.6-5.4-42c0-11.4,0.5-32.1,5.4-42.2c5.7-11.7,17.6-14.2,29.5-14.2c11.9,0,24.1,2.6,29.8,14.2   c4.9,10.1,5.5,30.8,5.5,42.2C438.9,156.8,438.4,177.3,433.4,187.4z"></path>
	<path class="st1" d="M667.6,237c-9.1,0-13.7-4.7-14.2-13.5l-5.9-88.1c-5.7,14.8-10.9,29.5-16.1,44.6c-3.1,8.8-6.2,17.9-9.9,26.4   c-5.4,12.4-11.4,11.9-23.6,11.9c-9.3,0-13.5-3.9-16.8-11.9c-3.7-8.5-6.8-17.6-10.1-26.4c-5.2-15-10.6-29.8-16.3-44.6l-5.7,88.1   c-1,15.6-13.2,13.5-25.1,13.5c-8.5,0-15.5-2.9-15.5-12.7v-2.1l13.2-145.6c0.8-9.9,6.5-12.7,15.6-12.7h14.5c8,0,12.7,2.1,16.1,9.6   c4.4,10.1,8,20.7,11.9,31.1c7.3,19.7,14.2,39.4,21.8,59.1c7.5-19.7,14.5-39.4,21.8-59.1c3.9-10.3,7.5-21,11.9-31.1   c3.4-7.5,7.8-9.6,15.8-9.6h14.5c9.1,0,14.8,2.9,15.5,12.7l13.2,145.6v2.1C694.1,239.3,678,237,667.6,237L667.6,237z"></path>
	<path class="st1" d="M822.1,0c-3.7,0-10.6,0-13.7,2.1c-4.9,3.1-29,31.3-29,35.7c0,7,8.6,7.3,13.5,7.3h10.9c2.6,0,5.2-0.5,7.8-1.6   c5.9-2.3,25.4-23.3,30.6-29.3c1.5-1.8,3.4-3.9,3.4-6.5C845.4-0.7,827.5,0,822.1,0z M869.4,221.8L813.2,76c-3.6-9.3-8-13-18.1-13   c-14.8,0-23.1-2.1-28.8,13.2L713,219.5c-0.8,2.1-2.3,6.5-2.3,8.6c0,8.3,5.9,9.1,13.2,9.1h11.9c9.6,0,12.9-3.9,16.1-12.4l7-19.4   c20.7,0.5,41.5,0.5,62.2,0l8,21.2c2.8,7.3,7,10.6,15,10.6h14.2c6.5,0,12.2-3.1,12.2-10.4C870.5,224.9,869.9,223.3,869.4,221.8z    M769.7,174.6l20-57.5l19.9,57.5H769.7z"></path>
	<path class="st1" d="M1007.3,98.6c-11.9,0-23.6-0.2-35.5-0.5V223c0,16.3-13.2,14-25.1,14c-10.1,0-15.5-3.4-15.5-14V98.1   c-11.9,0.3-23.6,0.5-35.5,0.5c-15,0-14-10.4-14-21.5c0-9,5.2-13.2,14-13.2h111.6c14,0,14,8.5,14,20   C1021.3,93.4,1017.4,98.6,1007.3,98.6L1007.3,98.6z"></path>
	<path class="st1" d="M1074.4,237.1h-11.1c-9.9,0-15.6-3.4-15.6-14V77.2c0-10.3,6.5-13.2,15.6-13.2h11.1c8.8,0,14,4.2,14,13.2v145.9   C1088.4,232.4,1083.7,237.1,1074.4,237.1L1074.4,237.1z"></path>
	<path class="st1" d="M1230.1,235.8c-9.8,0.8-20,1.3-29.8,1.3c-63,0-78-29.5-78-87.8c0-30.6,2.8-70.7,35.5-84.2   c12.9-5.2,28.5-6.2,42.5-6.2c9.8,0,19.9,0.5,29.8,1.3c8,0.8,16.3,1.8,16.3,11.7v8.3c0,10.4-1.8,15-13,15c-9.3,0-18.7-1.3-28-1.3   c-7,0-21,0.5-27.2,3.1c-16.8,7.3-14.3,37.8-14.3,52.6c0,18.9-2,46.9,22,51.6c6.2,1.3,13.2,1,19.4,1c9.3,0,18.7-1.3,28-1.3   c15.5,0,13,11.4,13,23.3C1246.4,234,1238.1,235,1230.1,235.8L1230.1,235.8z"></path>
	<path class="st1" d="M1348.2,53.7c-58.6,0-76.9,39.1-76.9,91.7c0,52.3,18.6,91.7,76.9,91.7c58.3,0,77.2-39.4,77.2-91.7   C1425.4,92.8,1406.7,53.7,1348.2,53.7z M1378,187.4c-5.7,11.7-17.9,14.5-29.8,14.5c-11.9,0-23.8-2.8-29.5-14.5   c-4.9-10.1-5.4-30.6-5.4-42c0-11.4,0.5-32.1,5.4-42.2c5.7-11.7,17.6-14.2,29.5-14.2c11.9,0,24.1,2.6,29.8,14.2   c4.9,10.1,5.4,30.8,5.4,42.2C1383.4,156.8,1382.9,177.3,1378,187.4z"></path>
	<path class="st1" d="M1565.1,216.6c-10.4,18.9-37.3,20.5-56.5,20.5c-12.7,0-25.9-0.5-38.6-1.8c-8-0.8-16.1-1.8-16.1-11.7V215   c0-10.4,1.8-15,12.9-15c5.4,0,10.6,0.5,16.1,1c9.9,1,19.7,1,29.5,1c20,0,17.9-1.6,17.9-20.5c0-7-0.8-9.1-7.2-11.9   c-10.9-4.7-22-8.5-32.9-13.2c-28-11.7-34.2-17.9-34.2-49c0-44.3,22.5-47.6,60.9-47.6c11.1,0,22.5,0.5,33.7,1.3   c8,0.5,16.3,1.8,16.3,11.7v8.3c0,10.4-1.8,15-12.9,15c-9.3,0-18.7-1.3-28-1.3c-6.2,0-12.7-0.2-18.9-0.2c-9.6,0-11.1,3.1-11.1,12.2   v3.1c0,7.5,0.3,9.1,7.3,12.2c7,3.1,14.2,5.7,21.5,8.5c8.8,3.6,17.6,7,25.9,11.7c17.3,9.3,19.7,19.2,19.7,38.1   C1570.2,190.7,1570,207.5,1565.1,216.6L1565.1,216.6z"></path>
	<g>
		<path class="st1" d="M141.3,76.8l-56.8,59.9l-30.7,31.3l0,0l-5.1,5.2l-9.7,10v44.7c0,5.1-4.1,9.2-9.2,9.2H9.3    c-5.1,0-9.2-4.1-9.2-9.2V70.5c0-5.1,4.1-9.2,9.2-9.2h20.5c5.1,0,9.2,4.1,9.2,9.2v59.3l63.1-65.7c1.7-1.8,4.1-2.8,6.6-2.8h25.9    C142.8,61.3,146.9,71,141.3,76.8z"></path>
		<path class="st1" d="M136.4,237.1h-24.6c-2.8,0-5.5-1.3-7.3-3.6l-46.4-59.9L85,146.8l58.6,75.5C148.3,228.3,144,237.1,136.4,237.1    z"></path>
	</g>
</g>
</svg>