<svg xmlns="http://www.w3.org/2000/svg" viewBox="0 0 82 103.47"><defs><style>.cls-1{fill:#682f78;}.cls-1,.cls-3{fill-rule:evenodd;}.cls-2{fill:#fff;}.cls-3{fill:#4dc5c7;}</style></defs><g id="Capa_2" data-name="Capa 2"><g id="Grupo_8" data-name="Grupo 8"><g id="Grupo_4" data-name="Grupo 4"><g id="Grupo_1" data-name="Grupo 1"><path id="Trazado_1" data-name="Trazado 1" class="cls-1" d="M82,100.47a3,3,0,0,1-1.2,2.4l-.1.1a3,3,0,0,1-1,.4h-.1a3.4,3.4,0,0,1-1,.1H12.7A12.8,12.8,0,0,1,0,90.67V12.57a10.88,10.88,0,0,1,.7-4v.5h0a12.31,12.31,0,0,0,.2,2h0l.1.1c0,.1.1.3.1.4s0,.1.1.2v.3a.6.6,0,0,1,.1.4v.1c0,.1.1.2.1.3l-.1.2v.1a.49.49,0,0,1,.1.3.75.75,0,0,1,.1.5.6.6,0,0,1,.1.4,10.09,10.09,0,0,0,.7,1.5l.2.4c.1.2.2.3.3.5a4.88,4.88,0,0,1,.3.7.78.78,0,0,1,.4.4c.1.1.1.2.2.3.4.7.9,1.4,1.3,2.2l.4.6.4.6a.1.1,0,0,0,.1.1,4.23,4.23,0,0,0,.5.7c.1.1.1.1.1.2s.2.2.2.3l.1.1.2.3.6.8c.1.1.1.2.2.3a.1.1,0,0,0,.1.1c.7.8,1.3,1.6,2,2.5a4.35,4.35,0,0,0,.6.7c.4.5.9,1,1.3,1.5.1.1.2.2.2.3l.5.5,68.6,68.5.1.1.1.1A2.74,2.74,0,0,1,82,100.47Z"></path><path id="Trazado_2" data-name="Trazado 2" class="cls-2" d="M10.7,27.67a2.65,2.65,0,0,0,.5.6c.3.3.5.6.8.9A17.38,17.38,0,0,1,10.7,27.67ZM8,24.47c.1.1.2.3.3.4l.4.5c.1.1.1.2.2.3A4.7,4.7,0,0,0,8,24.47Zm1.7,2.1c.1.1.1.2.2.3l.1.1c-.1-.2-.1-.3-.3-.4ZM5.1,2.47A7.68,7.68,0,0,0,2.8,6a.1.1,0,0,1-.1.1A.1.1,0,0,1,2.8,6a7.68,7.68,0,0,1,2.3-3.5,9.06,9.06,0,0,1,1.6-1.1A15.26,15.26,0,0,0,5.1,2.47ZM1.3,13.17l.1.2c0,.1.1.1.1.2C1.4,13.37,1.4,13.17,1.3,13.17Zm-.5-1.9h0c0,.1.1.3.1.4,0-.2-.1-.3-.1-.4Z"></path></g><g id="Grupo_3" data-name="Grupo 3"><g id="Grupo_2" data-name="Grupo 2"><path id="Trazado_3" data-name="Trazado 3" class="cls-3" d="M81.49,4c0,.1-.1.2-.2.3l-.2.3L35.29,50.3,13.79,28.8c-.1-.2-.3-.3-.5-.5l-.2-.2c-.3-.3-.5-.6-.8-.9l-1.2-1.4A13.44,13.44,0,0,1,10,24.4l-.4-.5-.9-1.2h0c-.1-.1-.1-.3-.3-.4l-.2-.3h0l-.4-.6a4.23,4.23,0,0,0-.5-.7l-.2-.4A39.39,39.39,0,0,1,3.49,14c-.1-.2-.1-.4-.3-.6s-.2-.5-.3-.7l-.1-.2h0a.6.6,0,0,1-.1-.4h0a4.33,4.33,0,0,1-.1-.5c0-.1-.1-.2-.1-.3s-.1-.2-.1-.3l-.1-.3h0A4.88,4.88,0,0,1,2.19,9c0-.5.1-1.1.1-1.6V7.3a7.6,7.6,0,0,0,.4-1.1.1.1,0,0,1,.1-.1.1.1,0,0,1,.1-.1,8.9,8.9,0,0,1,2.3-3.5,5.27,5.27,0,0,1,1.5-1.1h0a12.6,12.6,0,0,1,6-1.4h66.4a2.81,2.81,0,0,1,2.4,1.3A3.19,3.19,0,0,1,81.49,4Z"></path><path id="Trazado_4" data-name="Trazado 4" class="cls-2" d="M9.19,23.3a2.65,2.65,0,0,0,.5.6l.4.5,1.1,1.4,1.2,1.4.2.2C11.39,26,10.29,24.6,9.19,23.3Zm-5.9-9.4a.1.1,0,0,0,.1.1A32.25,32.25,0,0,0,7,20.3l.3.4a4.23,4.23,0,0,0,.5.7l.4.6A47.17,47.17,0,0,1,3.29,13.9Zm3.8,9.4.6.8Zm-.2-.3-.1-.1c.1.1.2.3.3.4Zm-4-10.4.1.2a3.63,3.63,0,0,0,.3.7C3.09,13.1,2.89,12.9,2.89,12.6Zm-.3-1a4.33,4.33,0,0,0,.1.5A4.33,4.33,0,0,1,2.59,11.6Zm-.1-.6-.1-.2.1.2c0,.2.1.3.1.4C2.59,11.2,2.49,11.1,2.49,11Z"></path></g></g></g></g></g></svg>